<?xml version="1.0" encoding="utf-8"?>
<svg viewBox="0 0 100 100" xmlns="http://www.w3.org/2000/svg">
  <rect width="100" height="100" style="fill: rgb(41, 47, 54);" rx="15"/>
  <path d="M 47.72 80.18 C 42.44 80.18 37.68 78.86 33.44 76.22 C 29.2 73.58 25.88 69.98 23.48 65.42 C 21.08 60.86 19.88 55.74 19.88 50.06 C 19.88 44.3 21.08 39.14 23.48 34.58 C 25.88 30.02 29.2 26.42 33.44 23.78 C 37.68 21.14 42.44 19.82 47.72 19.82 C 51.88 19.82 55.6 20.66 58.88 22.34 C 62.16 24.02 64.78 26.36 66.74 29.36 C 68.7 32.36 69.76 35.74 69.92 39.5 L 69.92 60.38 C 69.76 64.22 68.7 67.62 66.74 70.58 C 64.78 73.54 62.16 75.88 58.88 77.6 C 55.6 79.32 51.88 80.18 47.72 80.18 Z M 50.6 65.66 C 55 65.66 58.56 64.2 61.28 61.28 C 64 58.36 65.36 54.58 65.36 49.94 C 65.36 46.9 64.74 44.2 63.5 41.84 C 62.26 39.48 60.54 37.64 58.34 36.32 C 56.14 35 53.56 34.34 50.6 34.34 C 47.72 34.34 45.18 35 42.98 36.32 C 40.78 37.64 39.06 39.48 37.82 41.84 C 36.58 44.2 35.96 46.9 35.96 49.94 C 35.96 53.06 36.58 55.8 37.82 58.16 C 39.06 60.52 40.78 62.36 42.98 63.68 C 45.18 65 47.72 65.66 50.6 65.66 Z M 80.12 78.98 L 64.52 78.98 L 64.52 63.38 L 67.04 49.22 L 64.52 35.3 L 64.52 21.02 L 80.12 21.02 L 80.12 78.98 Z" style="white-space: pre; fill: rgb(255, 255, 255);"/>
</svg>