<?xml version="1.0" encoding="utf-8"?>
<svg viewBox="0 0 1500 1500" xmlns="http://www.w3.org/2000/svg">
  <rect width="1500" height="1500" style="fill: rgb(255, 255, 255);"/>
  <path d="M 184.577 835.56 C 170.937 835.56 158.641 832.15 147.687 825.33 C 136.734 818.51 128.157 809.21 121.957 797.43 C 115.757 785.65 112.657 772.423 112.657 757.75 C 112.657 742.87 115.757 729.54 121.957 717.76 C 128.157 705.98 136.734 696.68 147.687 689.86 C 158.641 683.04 170.937 679.63 184.577 679.63 C 195.324 679.63 204.934 681.8 213.407 686.14 C 221.881 690.48 228.647 696.523 233.707 704.27 C 238.774 712.023 241.514 720.757 241.927 730.47 L 241.927 784.41 C 241.514 794.33 238.774 803.113 233.707 810.76 C 228.647 818.407 221.881 824.453 213.407 828.9 C 204.934 833.34 195.324 835.56 184.577 835.56 Z M 192.017 798.05 C 203.384 798.05 212.581 794.277 219.607 786.73 C 226.634 779.19 230.147 769.427 230.147 757.44 C 230.147 749.587 228.544 742.613 225.337 736.52 C 222.137 730.42 217.694 725.667 212.007 722.26 C 206.327 718.847 199.664 717.14 192.017 717.14 C 184.577 717.14 178.017 718.847 172.337 722.26 C 166.651 725.667 162.204 730.42 158.997 736.52 C 155.797 742.613 154.197 749.587 154.197 757.44 C 154.197 765.5 155.797 772.58 158.997 778.68 C 162.204 784.773 166.651 789.527 172.337 792.94 C 178.017 796.347 184.577 798.05 192.017 798.05 Z M 268.277 832.46 L 227.977 832.46 L 227.977 792.16 L 234.487 755.58 L 227.977 719.62 L 227.977 682.73 L 268.277 682.73 L 268.277 832.46 Z M 387.312 835.56 C 376.565 835.56 366.852 833.34 358.172 828.9 C 349.492 824.453 342.568 818.407 337.402 810.76 C 332.235 803.113 329.445 794.33 329.032 784.41 L 329.032 731.4 C 329.445 721.48 332.285 712.647 337.552 704.9 C 342.825 697.147 349.752 690.997 358.332 686.45 C 366.905 681.903 376.565 679.63 387.312 679.63 C 401.158 679.63 413.558 683.04 424.512 689.86 C 435.465 696.68 444.095 705.98 450.402 717.76 C 456.702 729.54 459.852 742.87 459.852 757.75 C 459.852 772.423 456.702 785.65 450.402 797.43 C 444.095 809.21 435.465 818.51 424.512 825.33 C 413.558 832.15 401.158 835.56 387.312 835.56 Z M 380.182 798.05 C 387.622 798.05 394.235 796.347 400.022 792.94 C 405.808 789.527 410.302 784.773 413.502 778.68 C 416.708 772.58 418.312 765.5 418.312 757.44 C 418.312 749.587 416.708 742.613 413.502 736.52 C 410.302 730.42 405.808 725.667 400.022 722.26 C 394.235 718.847 387.622 717.14 380.182 717.14 C 372.948 717.14 366.438 718.847 360.652 722.26 C 354.865 725.667 350.368 730.42 347.162 736.52 C 343.962 742.613 342.362 749.587 342.362 757.44 C 342.362 765.5 343.962 772.58 347.162 778.68 C 350.368 784.773 354.815 789.527 360.502 792.94 C 366.182 796.347 372.742 798.05 380.182 798.05 Z M 344.532 895.08 L 304.232 895.08 L 304.232 682.73 L 344.842 682.73 L 344.842 722.1 L 338.022 758.37 L 344.532 794.64 L 344.532 895.08 Z M 556.876 835.56 C 541.789 835.56 528.202 832.097 516.116 825.17 C 504.022 818.25 494.409 808.85 487.276 796.97 C 480.149 785.083 476.586 771.803 476.586 757.13 C 476.586 742.457 480.099 729.28 487.126 717.6 C 494.152 705.927 503.762 696.63 515.956 689.71 C 528.149 682.783 541.686 679.32 556.566 679.32 C 571.859 679.32 585.552 682.783 597.646 689.71 C 609.732 696.63 619.289 705.927 626.316 717.6 C 633.342 729.28 636.856 742.457 636.856 757.13 C 636.856 771.803 633.342 785.083 626.316 796.97 C 619.289 808.85 609.732 818.25 597.646 825.17 C 585.552 832.097 571.962 835.56 556.876 835.56 Z M 556.566 797.74 C 564.212 797.74 570.979 796.033 576.866 792.62 C 582.759 789.213 587.306 784.463 590.506 778.37 C 593.712 772.27 595.316 765.293 595.316 757.44 C 595.316 749.587 593.662 742.663 590.356 736.67 C 587.049 730.677 582.502 725.977 576.716 722.57 C 570.929 719.157 564.212 717.45 556.566 717.45 C 549.126 717.45 542.512 719.157 536.726 722.57 C 530.939 725.977 526.392 730.677 523.086 736.67 C 519.779 742.663 518.126 749.587 518.126 757.44 C 518.126 765.293 519.779 772.27 523.086 778.37 C 526.392 784.463 530.939 789.213 536.726 792.62 C 542.512 796.033 549.126 797.74 556.566 797.74 Z M 721.79 832.46 L 681.18 832.46 L 681.18 620.42 L 721.79 620.42 L 721.79 832.46 Z M 756.82 718.38 L 646.15 718.38 L 646.15 682.73 L 756.82 682.73 L 756.82 718.38 Z M 921.116 832.46 L 880.506 832.46 L 880.506 746.59 C 880.506 737.703 877.716 730.47 872.136 724.89 C 866.556 719.31 859.323 716.52 850.436 716.52 C 844.65 716.52 839.483 717.76 834.936 720.24 C 830.39 722.72 826.823 726.233 824.236 730.78 C 821.656 735.327 820.366 740.597 820.366 746.59 L 804.556 738.53 C 804.556 726.75 807.036 716.467 811.996 707.68 C 816.956 698.9 823.826 692.03 832.606 687.07 C 841.393 682.11 851.47 679.63 862.836 679.63 C 874.203 679.63 884.276 682.11 893.056 687.07 C 901.843 692.03 908.716 698.85 913.676 707.53 C 918.636 716.21 921.116 726.233 921.116 737.6 L 921.116 832.46 Z M 820.366 832.46 L 779.756 832.46 L 779.756 608.33 L 820.366 608.33 L 820.366 832.46 Z M 1025.581 835.56 C 1009.874 835.56 995.924 832.203 983.731 825.49 C 971.538 818.77 961.874 809.52 954.741 797.74 C 947.614 785.96 944.051 772.527 944.051 757.44 C 944.051 742.56 947.514 729.28 954.441 717.6 C 961.361 705.927 970.814 696.63 982.801 689.71 C 994.788 682.783 1008.118 679.32 1022.791 679.32 C 1037.258 679.32 1050.018 682.573 1061.071 689.08 C 1072.131 695.593 1080.814 704.48 1087.121 715.74 C 1093.421 727.007 1096.571 739.77 1096.571 754.03 C 1096.571 756.717 1096.418 759.453 1096.111 762.24 C 1095.798 765.033 1095.228 768.187 1094.401 771.7 L 968.541 772.01 L 968.541 741.63 L 1075.491 741.32 L 1059.061 754.03 C 1058.648 745.143 1057.048 737.703 1054.261 731.71 C 1051.468 725.717 1047.434 721.117 1042.161 717.91 C 1036.894 714.71 1030.438 713.11 1022.791 713.11 C 1014.731 713.11 1007.704 714.92 1001.711 718.54 C 995.718 722.153 991.118 727.217 987.911 733.73 C 984.711 740.237 983.111 747.933 983.111 756.82 C 983.111 765.913 984.814 773.82 988.221 780.54 C 991.634 787.253 996.544 792.42 1002.951 796.04 C 1009.358 799.653 1016.798 801.46 1025.271 801.46 C 1032.918 801.46 1039.841 800.167 1046.041 797.58 C 1052.241 795 1057.614 791.127 1062.161 785.96 L 1086.031 809.83 C 1078.798 818.303 1069.961 824.71 1059.521 829.05 C 1049.088 833.39 1037.774 835.56 1025.581 835.56 Z M 1178.716 832.46 L 1138.106 832.46 L 1138.106 666.61 C 1138.106 654.623 1140.689 644.03 1145.856 634.83 C 1151.022 625.637 1158.359 618.353 1167.866 612.98 C 1177.372 607.607 1188.532 604.92 1201.346 604.92 C 1211.059 604.92 1219.429 606.573 1226.456 609.88 C 1233.482 613.187 1239.786 617.733 1245.366 623.52 L 1219.636 649.56 C 1217.362 647.287 1214.882 645.53 1212.196 644.29 C 1209.509 643.05 1206.099 642.43 1201.966 642.43 C 1194.526 642.43 1188.789 644.447 1184.756 648.48 C 1180.729 652.507 1178.716 658.24 1178.716 665.68 L 1178.716 832.46 Z M 1223.046 718.38 L 1103.386 718.38 L 1103.386 682.73 L 1223.046 682.73 L 1223.046 718.38 Z M 1320.692 833.39 L 1291.862 833.7 L 1229.242 682.73 L 1273.262 682.73 L 1314.802 798.05 L 1299.922 798.05 L 1343.012 682.73 L 1387.342 682.73 L 1320.692 833.39 Z M 1293.412 895.08 L 1250.322 895.08 L 1295.892 798.67 L 1320.692 833.39 L 1293.412 895.08 Z" style="fill: rgb(41, 47, 54); white-space: pre;"/>
</svg>